<svg width="1699" height="1588" viewBox="0 0 1699 1588" fill="none" xmlns="http://www.w3.org/2000/svg">
<g filter="url(#filter0_d_501_34)">
<path d="M1695 790.154C1695 1226.35 1316.43 1580 849.5 1580C382.572 1580 4 1226.35 4 790.154C4 353.962 382.572 0.307617 849.5 0.307617C1316.43 0.307617 1695 353.962 1695 790.154ZM1576.35 790.154C1576.35 415.174 1250.9 111.149 849.5 111.149C448.098 111.149 122.652 415.174 122.652 790.154C122.652 1165.13 448.098 1469.16 849.5 1469.16C1250.9 1469.16 1576.35 1165.13 1576.35 790.154Z" fill="#2F0E4A"/>
</g>
<path d="M1173.72 1186.89L941.488 871.658L1245.87 601.406V588.367H865.575V602.808L964.024 695.61L743.812 921.691L1008.36 1293.37H1280.43V1186.93H1173.72V1186.89Z" fill="#2F0E4A"/>
<path d="M710.849 207.856L734.899 219.494V699.135V1178.78V1178.86L743.939 1186.85H821.322V1293.28H450.8V1186.8H528.226L537.267 1178.82V426.674L426.75 359.993V340.455L710.849 207.856Z" fill="#2F0E4A"/>
<defs>
<filter id="filter0_d_501_34" x="0" y="0.307617" width="1699" height="1587.69" filterUnits="userSpaceOnUse" color-interpolation-filters="sRGB">
<feFlood flood-opacity="0" result="BackgroundImageFix"/>
<feColorMatrix in="SourceAlpha" type="matrix" values="0 0 0 0 0 0 0 0 0 0 0 0 0 0 0 0 0 0 127 0" result="hardAlpha"/>
<feOffset dy="4"/>
<feGaussianBlur stdDeviation="2"/>
<feComposite in2="hardAlpha" operator="out"/>
<feColorMatrix type="matrix" values="0 0 0 0 0 0 0 0 0 0 0 0 0 0 0 0 0 0 0.25 0"/>
<feBlend mode="normal" in2="BackgroundImageFix" result="effect1_dropShadow_501_34"/>
<feBlend mode="normal" in="SourceGraphic" in2="effect1_dropShadow_501_34" result="shape"/>
</filter>
</defs>
</svg>
